<svg xmlns="http://www.w3.org/2000/svg" viewBox="0 0 1980.00038 491.33892">
  <g>
    <polygon points="0 151.181 0 226.772 66 188.976 66 113.386 0 151.181" />
    <polygon points="66 113.386 66 188.976 132 151.181 132 75.591 66 113.386" />
    <polygon points="66 264.567 66 340.158 132 302.362 132 226.772 66 264.567" />
    <polygon points="66 188.976 66 264.567 132 226.772 132 151.181 66 188.976" />
    <polygon points="132 75.591 132 151.181 198 113.386 198 37.795 132 75.591" />
    <polygon points="66 415.748 66 491.339 132 453.543 132 377.953 66 415.748" />
    <polygon points="66 340.158 66 415.748 132 377.953 132 302.362 66 340.158" />
    <polygon points="528 147.645 528 223.236 594 185.441 594 109.85 528 147.645" />
    <polygon points="594 109.85 594 185.441 660 147.645 660 72.055 594 109.85" />
    <polygon points="594 261.031 594 336.622 660 298.826 660 223.236 594 261.031" />
    <polygon points="594 185.441 594 261.031 660 223.236 660 147.645 594 185.441" />
    <polygon points="660 72.055 660 147.645 726 109.85 726 34.259 660 72.055" />
    <polygon points="594 412.212 594 487.803 660 450.008 660 374.417 594 412.212" />
    <polygon points="594 336.622 594 412.212 660 374.417 660 298.826 594 336.622" />
    <polygon points="264 113.386 264 188.976 330 151.181 330 75.591 264 113.386" />
    <polygon points="330 75.591 330 151.181 396 113.386 396 37.795 330 75.591" />
    <polygon points="330 226.772 330 302.362 396 264.567 396 188.976 330 226.772" />
    <polygon points="330 377.953 330 453.544 396 415.748 396 340.158 330 377.953" />
    <polygon points="264 264.567 264 340.158 330 302.362 330 226.772 264 264.567" />
    <polygon points="264 188.976 264 264.567 330 226.772 330 151.181 264 188.976" />
    <polygon points="264 415.748 264 491.339 330 453.543 330 377.953 264 415.748" />
    <polygon points="264 340.158 264 415.748 330 377.953 330 302.362 264 340.158" />
    <polygon points="396 37.795 396 113.386 462 75.591 462 0 396 37.795" />
    <polygon points="396 188.976 396 264.567 462 226.772 462 151.181 396 188.976" />
    <polygon points="396 340.158 396 415.748 462 377.953 462 302.362 396 340.158" />
    <polygon points="1782 113.386 1782 188.976 1848 151.181 1848 75.591 1782 113.386" />
    <polygon points="1848 75.591 1848 151.181 1914 113.386 1914 37.795 1848 75.591" />
    <polygon points="1848 226.772 1848 302.362 1914 264.567 1914 188.976 1848 226.772" />
    <polygon points="1848 377.953 1848 453.544 1914 415.748 1914 340.158 1848 377.953" />
    <polygon points="1782 264.567 1782 340.158 1848 302.362 1848 226.772 1782 264.567" />
    <polygon points="1782 188.976 1782 264.567 1848 226.772 1848 151.181 1782 188.976" />
    <polygon points="1782 415.748 1782 491.339 1848 453.543 1848 377.953 1782 415.748" />
    <polygon points="1914 264.567 1914 340.158 1980 302.362 1980 226.772 1914 264.567" />
    <polygon points="1914 37.795 1914 113.386 1980 75.591 1980 0 1914 37.795" />
    <polygon points="1914 188.976 1914 264.567 1980 226.772 1980 151.181 1914 188.976" />
    <polygon points="1914 340.158 1914 415.748 1980 377.953 1980 302.362 1914 340.158" />
    <polygon points="1254 113.386 1254 188.976 1320 151.181 1320 75.591 1254 113.386" />
    <polygon points="1320 75.591 1320 151.181 1386 113.386 1386 37.795 1320 75.591" />
    <polygon points="1320 377.953 1320 453.544 1386 415.748 1386 340.158 1320 377.953" />
    <polygon points="1254 264.567 1254 340.158 1320 302.362 1320 226.772 1254 264.567" />
    <polygon points="1254 188.976 1254 264.567 1320 226.772 1320 151.181 1254 188.976" />
    <polygon points="1254 415.748 1254 491.339 1320 453.543 1320 377.953 1254 415.748" />
    <polygon points="1254 340.158 1254 415.748 1320 377.953 1320 302.362 1254 340.158" />
    <polygon points="1386 37.795 1386 113.386 1452 75.591 1452 0 1386 37.795" />
    <polygon points="1386 340.158 1386 415.748 1452 377.953 1452 302.362 1386 340.158" />
    <polygon points="1518 113.386 1518 188.976 1584 151.181 1584 75.591 1518 113.386" />
    <polygon points="1584 377.953 1584 453.544 1650 415.748 1650 340.158 1584 377.953" />
    <polygon points="1518 264.567 1518 340.158 1584 302.362 1584 226.772 1518 264.567" />
    <polygon points="1518 188.976 1518 264.567 1584 226.772 1584 151.181 1518 188.976" />
    <polygon points="1518 415.748 1518 491.339 1584 453.543 1584 377.953 1518 415.748" />
    <polygon points="1518 340.158 1518 415.748 1584 377.953 1584 302.362 1518 340.158" />
    <polygon points="1650 37.795 1650 113.386 1716 75.591 1716 0 1650 37.795" />
    <polygon points="1650 113.386 1650 188.976 1716 151.181 1716 75.591 1650 113.386" />
    <polygon points="1650 188.977 1650 264.567 1716 226.772 1716 151.181 1650 188.977" />
    <polygon points="1650 264.567 1650 340.158 1716 302.362 1716 226.772 1650 264.567" />
    <polygon points="1650 340.158 1650 415.748 1716 377.953 1716 302.362 1650 340.158" />
    <polygon points="792 113.386 792 188.976 858 151.181 858 75.591 792 113.386" />
    <polygon points="858 75.591 858 151.181 924 113.386 924 37.795 858 75.591" />
    <polygon points="858 226.772 858 302.362 924 264.567 924 188.976 858 226.772" />
    <polygon points="858 302.362 924 340.158 924 264.567 858 302.362" />
    <polygon points="792 264.567 792 340.158 858 302.362 858 226.772 792 264.567" />
    <polygon points="792 188.976 792 264.567 858 226.772 858 151.181 792 188.976" />
    <polygon points="792 415.748 792 491.339 858 453.543 858 377.953 792 415.748" />
    <polygon points="792 340.158 792 415.748 858 377.953 858 302.362 792 340.158" />
    <polygon points="1089 104.386 1089 179.976 1155 142.181 1155 66.591 1089 104.386" />
    <polygon points="1089 255.567 1089 331.158 1155 293.362 1155 217.772 1089 255.567" />
    <polygon points="1089 179.976 1089 255.567 1155 217.772 1155 142.181 1089 179.976" />
    <polygon points="1089 406.748 1089 482.339 1155 444.543 1155 368.953 1089 406.748" />
    <polygon points="1089 331.158 1089 406.748 1155 368.953 1155 293.362 1089 331.158" />
    <polygon points="924 37.795 924 113.386 990 75.591 924 37.795" />
    <polygon points="924 188.976 924 264.567 990 226.772 990 151.181 924 188.976" />
    <polygon points="924 113.386 924 188.976 990 151.181 990 75.591 924 113.386" />
    <polygon points="924 264.567 924 340.158 990 302.362 924 264.567" />
    <polygon points="924 340.158 924 415.748 990 377.953 990 302.362 924 340.158" />
    <polygon points="924 415.748 924 491.339 990 453.544 990 377.953 924 415.748" />
  </g>
</svg>
